<!--?xml version="1.0" encoding="utf-8"?-->
<!-- Generator: Adobe Illustrator 18.1.1, SVG Export Plug-In . SVG Version: 6.00 Build 0)  -->

<svg version="1.1" id="_x31_0" xmlns="http://www.w3.org/2000/svg" xmlns:xlink="http://www.w3.org/1999/xlink" x="0px" y="0px" viewBox="0 0 512 512" style="width: 16px; height: 16px; opacity: 1;" xml:space="preserve">
<style type="text/css">
	.st0{fill:#374149;}
</style>
<g>
	<path class="st0" d="M256,0C114.617,0,0,114.614,0,256s114.617,256,256,256c141.39,0,256-114.614,256-256S397.39,0,256,0z M256,448
		c-105.867,0-192-86.133-192-192S150.133,64,256,64s192,86.133,192,192S361.867,448,256,448z" style="fill: rgb(223, 86, 86);"></path>
	<path class="st0" d="M349.977,220.434c-2.559-6.05-5.723-11.879-9.406-17.332c-3.649-5.398-7.836-10.473-12.446-15.082
		c-4.457-4.457-9.363-8.492-14.558-12.05c-0.133-0.094-0.262-0.207-0.394-0.305l-0.004,0.008c-0.047-0.031-0.086-0.066-0.129-0.098
		l-18.566,27.488c3.648,2.461,7.078,5.293,10.199,8.414c3.117,3.117,5.949,6.546,8.414,10.195c2.485,3.676,4.618,7.61,6.344,11.683
		c1.75,4.149,3.098,8.489,4.004,12.898c0.926,4.539,1.398,9.211,1.398,13.891c0,4.679-0.473,9.355-1.398,13.886
		c-0.906,4.414-2.254,8.754-4.004,12.898c-1.726,4.078-3.859,8.012-6.34,11.684c-2.469,3.652-5.301,7.086-8.418,10.199
		c-3.122,3.121-6.551,5.953-10.199,8.418c-3.68,2.485-7.61,4.618-11.688,6.344c-4.144,1.75-8.48,3.098-12.894,4
		c-9.07,1.859-18.707,1.859-27.777,0c-4.414-0.902-8.754-2.25-12.898-4.004c-4.078-1.722-8.008-3.855-11.688-6.34
		c-3.644-2.465-7.078-5.297-10.199-8.418c-3.113-3.114-5.945-6.547-8.41-10.196c-2.484-3.675-4.621-7.609-6.343-11.683
		c-1.754-4.149-3.102-8.488-4.004-12.898c-0.926-4.535-1.398-9.211-1.398-13.89c0-4.68,0.473-9.352,1.398-13.887
		c0.902-4.414,2.25-8.754,4-12.894c1.726-4.082,3.863-8.015,6.344-11.687c2.469-3.653,5.301-7.082,8.414-10.199
		c3.122-3.122,6.555-5.954,10.199-8.414l-18.465-27.336l-0.012-0.019l0,0l-0.09-0.133c-5.398,3.644-10.473,7.832-15.082,12.445
		c-4.614,4.61-8.797,9.684-12.45,15.086c-3.683,5.449-6.847,11.278-9.406,17.332c-2.606,6.164-4.609,12.61-5.953,19.172
		c-1.375,6.718-2.07,13.629-2.07,20.535c0,6.906,0.695,13.816,2.07,20.542c1.344,6.555,3.347,13.004,5.953,19.168
		c2.559,6.051,5.723,11.879,9.406,17.332c3.653,5.398,7.836,10.477,12.45,15.082c4.609,4.614,9.683,8.801,15.078,12.446
		c5.454,3.683,11.286,6.851,17.336,9.406c6.16,2.61,12.61,4.61,19.168,5.954c6.722,1.375,13.629,2.07,20.539,2.07
		c6.91,0,13.82-0.695,20.539-2.07c6.558-1.344,13.011-3.344,19.168-5.95c6.05-2.558,11.882-5.726,17.332-9.41
		c5.398-3.645,10.473-7.832,15.086-12.446c4.61-4.606,8.797-9.684,12.45-15.086c3.679-5.449,6.843-11.277,9.406-17.332
		c2.605-6.16,4.605-12.609,5.949-19.168c1.375-6.722,2.07-13.633,2.07-20.538c0-6.906-0.695-13.817-2.07-20.539
		C354.586,233.047,352.586,226.602,349.977,220.434z" style="fill: rgb(223, 86, 86);"></path>
	<path class="st0" d="M241.695,249.363h28.61c1.254,0,2.281-1.023,2.281-2.278v-94.953c0-1.254-1.027-2.282-2.281-2.282h-28.61
		c-1.254,0-2.281,1.028-2.281,2.282v94.953C239.414,248.34,240.442,249.363,241.695,249.363z" style="fill: rgb(223, 86, 86);"></path>
</g>
</svg>
